<svg width="91" height="91" viewBox="0 0 91 91" fill="none" xmlns="http://www.w3.org/2000/svg">
<rect width="90.9439" height="91" rx="2" fill="#232323"/>
<path d="M28.9824 55.7061V58.625C28.9824 61.0381 34.522 63 41.3498 63C48.1776 63 53.7172 61.0381 53.7172 58.625V55.7061C51.0569 57.6953 46.1937 58.625 41.3498 58.625C36.5059 58.625 31.6427 57.6953 28.9824 55.7061ZM49.5947 36.75C56.4225 36.75 61.9621 34.7881 61.9621 32.375C61.9621 29.9619 56.4225 28 49.5947 28C42.7669 28 37.2273 29.9619 37.2273 32.375C37.2273 34.7881 42.7669 36.75 49.5947 36.75ZM28.9824 48.5352V52.0625C28.9824 54.4756 34.522 56.4375 41.3498 56.4375C48.1776 56.4375 53.7172 54.4756 53.7172 52.0625V48.5352C51.0569 50.8594 46.1872 52.0625 41.3498 52.0625C36.5123 52.0625 31.6427 50.8594 28.9824 48.5352ZM55.7784 49.2871C59.4693 48.5283 61.9621 47.1201 61.9621 45.5V42.5811C60.4677 43.7021 58.2712 44.4678 55.7784 44.9395V49.2871ZM41.3498 38.9375C34.522 38.9375 28.9824 41.3848 28.9824 44.4062C28.9824 47.4277 34.522 49.875 41.3498 49.875C48.1776 49.875 53.7172 47.4277 53.7172 44.4062C53.7172 41.3848 48.1776 38.9375 41.3498 38.9375ZM55.4756 42.7861C59.3404 42.0479 61.9621 40.5986 61.9621 38.9375V36.0186C59.6754 37.7344 55.7462 38.6572 51.6108 38.876C53.511 39.8535 54.9088 41.166 55.4756 42.7861Z" fill="#F4C551"/>
</svg>
