<svg width="93" height="16" viewBox="0 0 93 16" fill="none" xmlns="http://www.w3.org/2000/svg">
<path d="M83.5837 0.528694L81.5078 4.45843L76.8633 5.09063C76.0304 5.20341 75.6966 6.1621 76.3006 6.7112L79.6608 9.76831L78.866 14.0869C78.723 14.8675 79.6036 15.4522 80.3411 15.0871L84.4961 13.048L88.651 15.0871C89.3886 15.4492 90.2692 14.8675 90.1261 14.0869L89.3314 9.76831L92.6916 6.7112C93.2956 6.1621 92.9618 5.20341 92.1289 5.09063L87.4843 4.45843L85.4084 0.528694C85.0365 -0.171772 83.9588 -0.180676 83.5837 0.528694Z" fill="#F0DD0D"/>
<path d="M58.2526 0.528694L56.1767 4.45843L51.5322 5.09063C50.6993 5.20341 50.3655 6.1621 50.9695 6.7112L54.3297 9.76831L53.535 14.0869C53.3919 14.8675 54.2725 15.4522 55.01 15.0871L59.165 13.048L63.32 15.0871C64.0575 15.4492 64.9381 14.8675 64.7951 14.0869L64.0003 9.76831L67.3605 6.7112C67.9645 6.1621 67.6307 5.20341 66.7978 5.09063L62.1533 4.45843L60.0774 0.528694C59.7054 -0.171772 58.6278 -0.180676 58.2526 0.528694Z" fill="#F0DD0D"/>
<path d="M32.9226 0.528694L30.8467 4.45843L26.2021 5.09063C25.3692 5.20341 25.0354 6.1621 25.6394 6.7112L28.9997 9.76831L28.2049 14.0869C28.0618 14.8675 28.9424 15.4522 29.68 15.0871L33.8349 13.048L37.9899 15.0871C38.7274 15.4492 39.608 14.8675 39.465 14.0869L38.6702 9.76831L42.0304 6.7112C42.6345 6.1621 42.3007 5.20341 41.4678 5.09063L36.8232 4.45843L34.7473 0.528694C34.3754 -0.171772 33.2977 -0.180676 32.9226 0.528694Z" fill="#F0DD0D"/>
<path d="M7.5915 0.528694L5.51561 4.45843L0.871065 5.09063C0.0381633 5.20341 -0.295633 6.1621 0.30838 6.7112L3.6686 9.76831L2.87385 14.0869C2.73079 14.8675 3.61138 15.4522 4.34891 15.0871L8.50388 13.048L12.6589 15.0871C13.3964 15.4492 14.277 14.8675 14.1339 14.0869L13.3392 9.76831L16.6994 6.7112C17.3034 6.1621 16.9696 5.20341 16.1367 5.09063L11.4922 4.45843L9.41626 0.528694C9.04432 -0.171772 7.96663 -0.180676 7.5915 0.528694Z" fill="#F0DD0D"/>
</svg>
