<svg width="91" height="91" viewBox="0 0 91 91" fill="none" xmlns="http://www.w3.org/2000/svg">
<rect width="90.9439" height="91" rx="2" fill="#232323"/>
<path d="M41.7246 41.4375C41.7246 40.1261 40.7735 39.0625 39.6009 39.0625H38.539C36.193 39.0625 34.2916 41.1889 34.2916 43.8125V47.375C34.2916 49.9986 36.193 52.125 38.539 52.125H39.6009C40.7735 52.125 41.7246 51.0614 41.7246 49.75V41.4375ZM53.4048 52.125C55.7509 52.125 57.6522 49.9986 57.6522 47.375V43.8125C57.6522 41.1889 55.7509 39.0625 53.4048 39.0625H52.343C51.1703 39.0625 50.2193 40.1261 50.2193 41.4375V49.75C50.2193 51.0614 51.1703 52.125 52.343 52.125H53.4048ZM45.9719 26C36.4936 26 29.2864 34.8194 28.9824 45V46.1875C28.9824 46.8436 29.4576 47.375 30.0443 47.375H31.1061C31.6928 47.375 32.168 46.8436 32.168 46.1875V45C32.168 36.4879 38.3605 29.5625 45.9719 29.5625C53.5834 29.5625 59.7759 36.4879 59.7759 45H59.768C59.7733 45.1804 59.7759 57.2995 59.7759 57.2995C59.7759 59.0325 58.5196 60.4375 56.97 60.4375H50.2193C50.2193 58.47 48.7931 56.875 47.0338 56.875H44.9101C43.1507 56.875 41.7246 58.47 41.7246 60.4375C41.7246 62.405 43.1507 64 44.9101 64H56.97C60.279 64 62.9614 61.0001 62.9614 57.2995V45C62.6575 34.8194 55.4502 26 45.9719 26Z" fill="#C4A66D"/>
</svg>
